%TF.GenerationSoftware,KiCad,Pcbnew,9.0.0*%
%TF.CreationDate,2025-04-18T15:14:15+05:30*%
%TF.ProjectId,FTDI-UPDI-CH340-Type-c-auto,46544449-2d55-4504-9449-2d4348333430,rev?*%
%TF.SameCoordinates,Original*%
%TF.FileFunction,Soldermask,Top*%
%TF.FilePolarity,Negative*%
%FSLAX46Y46*%
G04 Gerber Fmt 4.6, Leading zero omitted, Abs format (unit mm)*
G04 Created by KiCad (PCBNEW 9.0.0) date 2025-04-18 15:14:15*
%MOMM*%
%LPD*%
G01*
G04 APERTURE LIST*
G04 Aperture macros list*
%AMRoundRect*
0 Rectangle with rounded corners*
0 $1 Rounding radius*
0 $2 $3 $4 $5 $6 $7 $8 $9 X,Y pos of 4 corners*
0 Add a 4 corners polygon primitive as box body*
4,1,4,$2,$3,$4,$5,$6,$7,$8,$9,$2,$3,0*
0 Add four circle primitives for the rounded corners*
1,1,$1+$1,$2,$3*
1,1,$1+$1,$4,$5*
1,1,$1+$1,$6,$7*
1,1,$1+$1,$8,$9*
0 Add four rect primitives between the rounded corners*
20,1,$1+$1,$2,$3,$4,$5,0*
20,1,$1+$1,$4,$5,$6,$7,0*
20,1,$1+$1,$6,$7,$8,$9,0*
20,1,$1+$1,$8,$9,$2,$3,0*%
%AMFreePoly0*
4,1,23,0.500000,-0.750000,0.000000,-0.750000,0.000000,-0.745722,-0.065263,-0.745722,-0.191342,-0.711940,-0.304381,-0.646677,-0.396677,-0.554381,-0.461940,-0.441342,-0.495722,-0.315263,-0.495722,-0.250000,-0.500000,-0.250000,-0.500000,0.250000,-0.495722,0.250000,-0.495722,0.315263,-0.461940,0.441342,-0.396677,0.554381,-0.304381,0.646677,-0.191342,0.711940,-0.065263,0.745722,0.000000,0.745722,
0.000000,0.750000,0.500000,0.750000,0.500000,-0.750000,0.500000,-0.750000,$1*%
%AMFreePoly1*
4,1,23,0.000000,0.745722,0.065263,0.745722,0.191342,0.711940,0.304381,0.646677,0.396677,0.554381,0.461940,0.441342,0.495722,0.315263,0.495722,0.250000,0.500000,0.250000,0.500000,-0.250000,0.495722,-0.250000,0.495722,-0.315263,0.461940,-0.441342,0.396677,-0.554381,0.304381,-0.646677,0.191342,-0.711940,0.065263,-0.745722,0.000000,-0.745722,0.000000,-0.750000,-0.500000,-0.750000,
-0.500000,0.750000,0.000000,0.750000,0.000000,0.745722,0.000000,0.745722,$1*%
G04 Aperture macros list end*
%ADD10R,2.000000X1.000000*%
%ADD11R,1.700000X1.400000*%
%ADD12R,1.400000X1.700000*%
%ADD13R,1.900000X1.400000*%
%ADD14R,3.200000X1.600000*%
%ADD15R,1.600000X2.000000*%
%ADD16R,1.600000X3.200000*%
%ADD17R,0.700000X1.000000*%
%ADD18R,1.500000X2.000000*%
%ADD19C,1.050000*%
%ADD20R,1.000000X1.200000*%
%ADD21RoundRect,0.150000X-0.150000X0.825000X-0.150000X-0.825000X0.150000X-0.825000X0.150000X0.825000X0*%
%ADD22FreePoly0,0.000000*%
%ADD23FreePoly1,0.000000*%
G04 APERTURE END LIST*
%TO.C,JP2*%
G36*
X148998818Y-101320361D02*
G01*
X149298818Y-101320361D01*
X149298818Y-102820361D01*
X148998818Y-102820361D01*
X148998818Y-101320361D01*
G37*
%TD*%
D10*
%TO.C,J2*%
X158115000Y-90170000D03*
X158115000Y-92710000D03*
X158115000Y-95250000D03*
X158115000Y-97790000D03*
X158115000Y-100330000D03*
X158115000Y-102870000D03*
%TD*%
D11*
%TO.C,C1*%
X137449528Y-103997945D03*
X137449528Y-107397945D03*
%TD*%
D12*
%TO.C,C2*%
X137036467Y-92899194D03*
X140436467Y-92899194D03*
%TD*%
%TO.C,R3*%
X131258966Y-107019280D03*
X127858966Y-107019280D03*
%TD*%
%TO.C,R1*%
X138464115Y-89889293D03*
X141864115Y-89889293D03*
%TD*%
D13*
%TO.C,D5*%
X151423526Y-95097538D03*
X151423526Y-98397538D03*
%TD*%
D14*
%TO.C,J1*%
X126795091Y-99685605D03*
X126795091Y-97145605D03*
X126795091Y-94605605D03*
X126795091Y-92065605D03*
D15*
X123782214Y-102342302D03*
D16*
X113964851Y-102239403D03*
X113961026Y-89549639D03*
D15*
X123772591Y-89538799D03*
%TD*%
D17*
%TO.C,U2*%
X132997631Y-89610605D03*
X131097631Y-89610605D03*
X132047631Y-92010605D03*
%TD*%
D12*
%TO.C,D1*%
X147179148Y-90516950D03*
X143779148Y-90516950D03*
%TD*%
D18*
%TO.C,D3*%
X130984641Y-103632261D03*
X127684641Y-103632261D03*
%TD*%
D12*
%TO.C,R5*%
X153465000Y-89535000D03*
X150065000Y-89535000D03*
%TD*%
%TO.C,R2*%
X138508163Y-87466645D03*
X141908163Y-87466645D03*
%TD*%
D19*
%TO.C,SW1*%
X141097802Y-106854511D03*
X144097802Y-106854511D03*
D20*
X140097802Y-104254511D03*
X142597802Y-104254511D03*
X145097802Y-104254511D03*
%TD*%
D12*
%TO.C,C4*%
X129245034Y-87774927D03*
X125845034Y-87774927D03*
%TD*%
D11*
%TO.C,D4*%
X134844304Y-107397945D03*
X134844304Y-103997945D03*
%TD*%
%TO.C,R4*%
X153975722Y-98427494D03*
X153975722Y-102027494D03*
%TD*%
D21*
%TO.C,U1*%
X140335000Y-95545001D03*
X139065000Y-95545001D03*
X137795000Y-95545001D03*
X136525000Y-95545001D03*
X135255000Y-95545001D03*
X133985000Y-95545001D03*
X132715000Y-95545001D03*
X131445000Y-95545001D03*
X131445000Y-100495001D03*
X132715000Y-100495001D03*
X133985000Y-100495001D03*
X135255000Y-100495001D03*
X136525000Y-100495001D03*
X137795000Y-100495001D03*
X139065000Y-100495001D03*
X140335000Y-100495001D03*
%TD*%
D22*
%TO.C,JP2*%
X148498818Y-102070361D03*
D23*
X149898818Y-102070361D03*
%TD*%
D11*
%TO.C,C3*%
X134996347Y-89172870D03*
X134996347Y-92572870D03*
%TD*%
D12*
%TO.C,D2*%
X147193611Y-88285287D03*
X143793611Y-88285287D03*
%TD*%
D17*
%TO.C,Q1*%
X149072144Y-92526400D03*
X147172144Y-92526400D03*
X148122144Y-94926400D03*
%TD*%
M02*
